<?xml version="1.0" encoding="utf-8"?>
<!-- Generator: Adobe Illustrator 19.0.0, SVG Export Plug-In . SVG Version: 6.00 Build 0)  -->
<svg version="1.1" id="Layer_1" xmlns="http://www.w3.org/2000/svg" xmlns:xlink="http://www.w3.org/1999/xlink" x="0px" y="0px"
	 viewBox="1.4 203.6 527.2 391.5" style="enable-background:new 1.4 203.6 527.2 391.5;" xml:space="preserve">
<style type="text/css">
	.st0{fill:url(#SVGID_1_);}
	.st1{fill:url(#SVGID_2_);}
	.st2{fill:#1E345D;}
	.st3{fill:url(#SVGID_3_);}
	.st4{fill:url(#SVGID_4_);}
	.st5{fill:url(#SVGID_5_);}
	.st6{fill:#FFFFFF;}
	.st7{fill:#8CB9E4;}
</style>
<g>
	
		<radialGradient id="SVGID_1_" cx="187.2753" cy="-6576.0854" r="244.3965" gradientTransform="matrix(1.0782 0 0 8.350000e-02 63.0798 1123.8831)" gradientUnits="userSpaceOnUse">
		<stop  offset="0" style="stop-color:#B4B4B4"/>
		<stop  offset="0.9394" style="stop-color:#FFFFFF;stop-opacity:0"/>
	</radialGradient>
	<path class="st0" d="M528.6,574.8c0-11.3-118-20.4-263.6-20.4S1.4,563.5,1.4,574.8s118,20.4,263.6,20.4
		C410.5,595.2,528.6,586.1,528.6,574.8z"/>
	
		<linearGradient id="SVGID_2_" gradientUnits="userSpaceOnUse" x1="160.7127" y1="367.3199" x2="369.1854" y2="367.3199" gradientTransform="matrix(1 0 0 1 0 -3.993225e-02)">
		<stop  offset="0" style="stop-color:#ACDBF7"/>
		<stop  offset="0.3896" style="stop-color:#7FB5E3"/>
		<stop  offset="0.7173" style="stop-color:#5E9CD4"/>
		<stop  offset="0.9033" style="stop-color:#5093CF"/>
	</linearGradient>
	<polygon class="st1" points="109.8,498.2 403,523.9 380.4,210.7 109.8,231.2 	"/>
	<path class="st2" d="M397.6,526.1c0.2,0,0.4,0,0.6,0c0.1,0,0.1,0,0.2,0c0.2,0,0.4,0,0.6-0.1c1.6-0.3,3-1.1,4-2.1l-2.9-3.2
		c-0.1-0.1-0.1-0.1-0.1-0.2l-14.8-16.6c-2.8-3.1-8.5-5.7-12.7-5.7H120.7h-7.1h-4.9c0.6,0.7,1.4,1.4,2.1,1.8c0.6,0.4,2.4,1.2,2.4,1.2
		l49.3,21.9c3.8,1.6,10.4,3,14.6,3h220.1l0,0l0,0C397.5,526.1,397.5,526.1,397.6,526.1z"/>
	
		<linearGradient id="SVGID_3_" gradientUnits="userSpaceOnUse" x1="435.4535" y1="374.3149" x2="333.4244" y2="418.6986" gradientTransform="matrix(1 0 0 1 0 -3.993225e-02)">
		<stop  offset="0" style="stop-color:#EBF3FC"/>
		<stop  offset="0.1366" style="stop-color:#DBE9F8"/>
		<stop  offset="0.5291" style="stop-color:#AFCFEF"/>
		<stop  offset="0.8296" style="stop-color:#91C0E8"/>
		<stop  offset="1" style="stop-color:#85BAE6"/>
	</linearGradient>
	<path class="st3" d="M405,316.7l-24.6-53.9v228.4c0,4.2,2.3,10.2,5.1,13.3l14.4,16l0,0l3,3.4c1.3-1.3,2-2.9,2-4.8
		c0-0.1,0-0.1,0-0.2c0-0.1,0-0.2,0-0.3L405,316.7L405,316.7z"/>
	
		<linearGradient id="SVGID_4_" gradientUnits="userSpaceOnUse" x1="363.784" y1="250.7423" x2="421.2455" y2="281.4064" gradientTransform="matrix(1 0 0 1 0 -3.993225e-02)">
		<stop  offset="0" style="stop-color:#AEC9EB"/>
		<stop  offset="0.3172" style="stop-color:#8DB5E1"/>
		<stop  offset="0.6557" style="stop-color:#6BA4D9"/>
		<stop  offset="0.8485" style="stop-color:#5D9DD5"/>
	</linearGradient>
	<path class="st4" d="M380.4,265.8l24.6,57.6c0,0,0-40.7,0-43c0-2.3-0.7-3.7-0.7-3.7l-24.1-67.9l0.3,1.9L380.4,265.8L380.4,265.8z"
		/>
	
		<linearGradient id="SVGID_5_" gradientUnits="userSpaceOnUse" x1="341.2237" y1="216.4939" x2="119.2278" y2="451.4892" gradientTransform="matrix(1 0 0 1 0 -3.993225e-02)">
		<stop  offset="0" style="stop-color:#2F6CB4"/>
		<stop  offset="0.1585" style="stop-color:#2561A6"/>
		<stop  offset="0.4523" style="stop-color:#185293"/>
		<stop  offset="0.737" style="stop-color:#0D4A89"/>
		<stop  offset="1" style="stop-color:#074785"/>
	</linearGradient>
	<path class="st5" d="M372.9,203.7L114,224.6c-4.2,0.4-7.6,4.1-7.6,8.2c0,0,0,258.7,0,258.9c0,2.5,0.9,4.8,2.3,6.5h5.3h6.6h69.3
		c-11.7-13.5-21.1-29.3-27.7-46.7l76-0.8c13.2,13.8,31.3,22.4,51.4,22.4c42.2,0.2,77.2-37.1,77.2-83s-35-81.8-77.2-80
		c-22.8,1-43,12.8-56.5,30.5l-73.1,2.5c18.8-57.9,69-102,129.6-105.8c33.6-2.1,65.2,8.5,90.7,28.4v-55.1
		C380.4,206.5,377,203.3,372.9,203.7z"/>
	<g>
		<g>
			<g>
				<g>
					<path class="st2" d="M161.1,384l-8.2,17.1l-8.1,0.2l-3.9-2.1l-4.2-14.3v26l-10.3,0.2l-4.1-2.1l4.1-44.4l6.9-2.6l4,2.1
						l11.6,24.3l11.7-25.3l7.7-2.6l3.5,2.1V410l-10.6,0.3l-3.7-2.1L161.1,384z"/>
					<path class="st2" d="M191.9,374.8v34.9l-10.5,0.2l-3.4-2.1l3.4-23.4l-4.5,0.2l-3.5-2.1l3.5-7.1l11.7-2.7L191.9,374.8z
						 M181.4,361.6l7.2-2.6l3.3,2.1v9.6l-10.5,0.4L178,369L181.4,361.6z"/>
					<path class="st2" d="M197.9,361.5l7.6-2.6l3.1,2.1v36.8c0,0.7,0.2,1.3,0.6,1.7c0.4,0.4,0.9,0.7,1.5,0.6l0.7-2.2l3,2.1v9
						c-0.8,0.2-1.7,0.3-2.5,0.4c-0.7,0.1-1.5,0.2-2.4,0.3c-0.9,0.1-1.7,0.1-2.4,0.2c-2.8,0.1-5-0.8-6.6-2.7
						c-1.7-1.8-2.5-4.3-2.5-7.4v-38.3H197.9z"/>
					<path class="st2" d="M231.7,373.2v35.5l-10.9,0.3l-3-2.1l3-23.8l-4.6,0.2l-3-2.1l3-7.2l12.7-2.7L231.7,373.2z M220.8,359.8
						l8.1-2.6l2.8,2.1v9.7l-10.9,0.4l-3-2.1L220.8,359.8z"/>
					<path class="st2" d="M249,408.3v11.9l-11.1,0.2l-2.8-2.1l2.8-46.7l7.1-2.5l2.6,2.1l0.6,3.5c1.1-0.8,2.3-1.6,3.6-2.2
						c1.1-0.6,2.3-1.1,3.7-1.6c1.4-0.5,2.8-0.8,4.2-0.8l2.9-0.1c2.9-0.1,5.3,0.8,7,2.6c1.8,1.9,2.7,4.4,2.7,7.6v16.3
						c0,3.5-0.9,6.3-2.7,8.4c-1.8,2.1-4.4,3.1-7.6,3.2L249,408.3z M249,398.8l9.6-0.3c1.7,0,2.6-1,2.6-2.9v-13
						c0-0.7-0.2-1.3-0.6-1.7c-0.4-0.5-1-0.7-1.6-0.6l-2.2,0.1c-0.8,0-1.7,0.1-2.5,0.3c-0.9,0.2-1.7,0.4-2.5,0.6
						c-0.9,0.2-1.8,0.5-2.6,0.8v16.7H249z"/>
					<path class="st2" d="M314.4,395.9c0,3.6-0.9,6.4-2.8,8.5s-4.5,3.2-7.8,3.2l-15.2,0.4c-3.3,0.1-5.8-0.9-7.7-2.8
						c-1.8-2-2.8-4.7-2.8-8.3v-16.3c0-3.5,0.9-6.4,2.8-8.4c1.8-2.1,4.4-3.2,7.7-3.3l15.2-0.6c3.3-0.1,5.9,0.8,7.8,2.7
						c1.9,2,2.8,4.8,2.8,8.4V395.9z M302.7,380.8c0-1.9-0.9-2.8-2.7-2.8l-7.9,0.3c-1.8,0.1-2.6,1-2.6,2.9v14.3
						c0,1.9,0.9,2.8,2.6,2.8l7.9-0.2c1.8,0,2.7-1,2.7-2.9V380.8z"/>
					<path class="st2" d="M320.6,356l10.2-2.7l1.6,2.1v38.8c0,0.7,0.2,1.3,0.7,1.8s1,0.7,1.7,0.7l2.6-2.2l1.6,2.1v9.5
						c-0.9,0.2-1.8,0.3-2.8,0.4c-0.8,0.1-1.7,0.2-2.7,0.3c-1,0.1-1.9,0.2-2.7,0.2c-3.1,0.1-5.5-0.9-7.4-2.8
						c-1.8-1.9-2.8-4.5-2.8-7.8L320.6,356L320.6,356z"/>
				</g>
			</g>
		</g>
		<g>
			<g>
				<g>
					<path class="st6" d="M157.4,381.9l-8.3,17.1l-8.2,0.2l-8.2-16.4v26l-10.4,0.2v-46.4l11-0.5l11.7,24.3l11.8-25.3l11.3-0.5V408
						l-10.7,0.3L157.4,381.9L157.4,381.9z"/>
					<path class="st6" d="M188.6,372.6v34.9l-10.6,0.2v-25.5l-4.5,0.2v-9.2L188.6,372.6z M177.9,359.5l10.6-0.5v9.6l-10.6,0.4V359.5
						z"/>
					<path class="st6" d="M194.7,359.4l10.8-0.5v36.8c0,0.7,0.2,1.3,0.6,1.7c0.4,0.4,0.9,0.7,1.6,0.6l3.7-0.1v9
						c-0.8,0.2-1.7,0.3-2.6,0.4c-0.7,0.1-1.6,0.2-2.4,0.3c-0.9,0.1-1.7,0.1-2.5,0.2c-2.8,0.1-5-0.8-6.7-2.7
						c-1.7-1.8-2.5-4.3-2.5-7.4V359.4z"/>
					<path class="st6" d="M228.9,371.1v35.5l-11,0.3v-26l-4.7,0.2v-9.3L228.9,371.1z M217.9,357.7l11-0.5v9.7l-11,0.4V357.7z"/>
					<path class="st6" d="M246.4,406.1V418l-11.2,0.2v-48.8l9.9-0.4l0.6,3.5c1.1-0.8,2.3-1.6,3.6-2.2c1.1-0.6,2.4-1.1,3.7-1.6
						c1.4-0.5,2.8-0.8,4.3-0.8l2.9-0.1c2.9-0.1,5.3,0.8,7.1,2.6c1.8,1.9,2.7,4.4,2.7,7.6v16.3c0,3.5-0.9,6.3-2.8,8.4
						c-1.9,2-4.4,3.1-7.7,3.2L246.4,406.1z M246.4,396.7l9.7-0.3c1.7,0,2.6-1,2.6-2.9v-13c0-0.7-0.2-1.3-0.6-1.7
						c-0.4-0.5-1-0.7-1.6-0.6l-2.3,0.1c-0.8,0-1.7,0.1-2.6,0.3c-0.9,0.2-1.7,0.4-2.5,0.6c-0.9,0.2-1.8,0.5-2.6,0.8v16.7H246.4z"/>
					<path class="st6" d="M312.6,393.8c0,3.6-1,6.4-2.9,8.5s-4.6,3.2-7.9,3.2l-15.4,0.4c-3.3,0.1-5.9-0.9-7.8-2.8
						c-1.9-2-2.8-4.7-2.8-8.3v-16.3c0-3.5,0.9-6.4,2.8-8.4c1.9-2.1,4.5-3.2,7.8-3.3l15.4-0.6c3.4-0.1,6,0.8,7.9,2.7
						c1.9,2,2.9,4.8,2.9,8.4V393.8z M300.7,378.7c0-1.9-0.9-2.8-2.7-2.8l-8,0.3c-1.8,0.1-2.7,1-2.7,2.9v14.3c0,1.9,0.9,2.8,2.7,2.8
						l8-0.2c1.8,0,2.7-1,2.7-2.9V378.7z"/>
					<path class="st6" d="M318.9,353.9l12-0.5v38.8c0,0.7,0.2,1.3,0.7,1.8s1,0.7,1.7,0.7l4.2-0.1v9.5c-0.9,0.2-1.9,0.3-2.8,0.4
						c-0.8,0.1-1.7,0.2-2.7,0.3c-1,0.1-1.9,0.2-2.8,0.2c-3.1,0.1-5.6-0.9-7.5-2.8s-2.8-4.5-2.8-7.8L318.9,353.9L318.9,353.9z"/>
				</g>
			</g>
			<g>
				<g>
					<path class="st7" d="M123.6,420.1l5.8-0.1c3.8-0.1,4.5,2.7,4.5,4.6s-0.7,4.6-4.5,4.7h-3.5v5.8h-2.3V420.1z M125.9,427.2h3.4
						c1,0,2.3-0.6,2.3-2.5c0-2-1.1-2.5-2.3-2.5l-3.4,0.1V427.2z"/>
					<path class="st7" d="M138.8,419.8h2.5l5.1,15.1h-2.5l-1.2-4l-5.3,0.1l-1.2,4h-2.4L138.8,419.8z M138,428.9l4-0.1l-2-6.5h-0.1
						L138,428.9z"/>
					<path class="st7" d="M148.2,419.6l6.4-0.1c3-0.1,4.4,1.5,4.4,4c0,2.9-1.8,3.7-2.2,3.9l0,0c0.8,0.1,2,0.8,2,3.2
						c0,1.8,0.2,3.4,0.7,4H157c-0.4-0.7-0.4-1.5-0.4-2.2c0-2.8-0.5-4-2.7-4l-3.5,0.1v6.3h-2.3v-15.2L148.2,419.6L148.2,419.6z
						 M150.5,426.5l3.8-0.1c1.5,0,2.3-0.9,2.3-2.5c0-2-1.1-2.3-2.3-2.3l-3.8,0.1V426.5z"/>
					<path class="st7" d="M161.9,419.4h2.4v15.3h-2.4V419.4z"/>
					<path class="st7" d="M169,429.5c0,2.3,1.5,3.3,3.5,3.2c2.1,0,2.9-1.2,2.9-2.4c0-1.2-0.6-1.6-1.1-1.9c-1-0.4-2.2-0.7-4.1-1.2
						c-2.3-0.7-3-2.3-3-3.8c0-3.1,2.5-4.6,5-4.6c2.8,0,5.2,1.6,5.2,4.8H175c-0.1-2-1.3-2.7-2.9-2.7c-1.1,0-2.5,0.5-2.5,2
						c0,1.1,0.6,1.6,1.6,2c0.2,0.1,3.2,0.9,3.9,1.1c1.8,0.6,2.7,2.2,2.7,3.9c0,3.5-2.7,4.9-5.4,4.9c-3.1,0-5.6-1.6-5.7-5.4
						L169,429.5z"/>
					<path class="st7" d="M193.8,434.3l-9.3,0.1c0-2.5,1.1-4.4,3-5.8c1.8-1.5,4-2.7,4.1-5.1c0-1.1-0.4-2.7-2.3-2.7
						c-1.7,0-2.3,1.7-2.3,3.8h-2.2c0-3.4,1.6-5.9,4.7-5.9c3.3-0.1,4.4,2.6,4.4,4.6c0,4.9-5.9,6-6.6,8.7l6.6-0.1v2.4H193.8z"/>
					<path class="st7" d="M205.2,426.5c0,3.5-0.8,8-4.7,8c-3.9,0-4.7-4.4-4.7-7.9s0.8-7.9,4.7-8
						C204.4,418.6,205.2,423.1,205.2,426.5z M202.9,426.6c0-3.2-0.6-5.9-2.5-5.8c-2,0-2.5,2.7-2.5,5.9c0,3.2,0.5,5.8,2.5,5.8
						C202.4,432.4,202.9,429.8,202.9,426.6z"/>
					<path class="st7" d="M207.1,421.4c1.9,0,3.7-0.7,4-2.6h1.8v15.3h-2.5v-10.8l-3.4,0.1v-2H207.1z"/>
					<path class="st7" d="M216.1,418.7l9.4-0.1v2.1c-2.8,3.6-4.7,7.7-5,13.2h-2.4c0.3-4.8,2.4-9.5,5.2-13.1l-7.1,0.1L216.1,418.7z"
						/>
				</g>
			</g>
		</g>
	</g>
</g>
</svg>
